<svg aria-hidden="true" style="position: absolute; width: 0; height: 0; overflow: hidden;" version="1.1" xmlns="http://www.w3.org/2000/svg" xmlns:xlink="http://www.w3.org/1999/xlink">
<defs>

<symbol id="icon-repair" viewBox="0 0 32 32">
<path fill="#7595fd" style="fill: var(--color1, #7595fd)" d="M0.113 14.049h17.63v17.63h-17.63v-17.63z"></path>
<path fill="#fff" style="fill: var(--color2, #fff)" d="M22.779 21.605h-2.519v-1.259h-10.074v1.259h-2.518v-1.259h-5.037v6.296h25.185v-6.296h-5.037v1.259zM25.298 11.53h-3.778v-2.518c0-1.385-1.133-2.518-2.518-2.518h-7.556c-1.385 0-2.518 1.133-2.518 2.518v2.518h-3.778c-1.385 0-2.518 1.133-2.518 2.518v5.037h5.037v-2.518h2.518v2.518h10.074v-2.518h2.519v2.518h5.037v-5.037c0-1.385-1.133-2.518-2.518-2.518zM19.001 11.53h-7.556v-2.518h7.556v2.518z"></path>
</symbol>

<symbol id="icon-consultation" viewBox="0 0 32 32">
<path fill="#7595fd" style="fill: var(--color1, #7595fd)" d="M0.156 14.204h17.63v17.63h-17.63v-17.63z"></path>
<path fill="#292e3d" style="fill: var(--color3, #292e3d)" d="M14.007 9.167h3.778l4.143-4.156c0.117-0.118 0.256-0.212 0.41-0.276s0.318-0.097 0.484-0.097 0.331 0.033 0.484 0.097c0.153 0.064 0.293 0.158 0.41 0.276l3.249 3.261c0.235 0.236 0.366 0.555 0.366 0.888s-0.132 0.652-0.366 0.888l-2.884 2.896h-10.074v2.518c0 0.334-0.133 0.654-0.369 0.89s-0.556 0.369-0.89 0.369c-0.334 0-0.654-0.133-0.89-0.369s-0.369-0.556-0.369-0.89v-3.778c0-0.668 0.265-1.309 0.738-1.781s1.113-0.738 1.781-0.738zM6.452 15.463v5.037l-2.884 2.884c-0.235 0.236-0.366 0.555-0.366 0.888s0.132 0.652 0.366 0.888l3.249 3.262c0.117 0.118 0.256 0.212 0.41 0.276s0.318 0.097 0.484 0.097c0.166 0 0.331-0.033 0.484-0.097s0.293-0.158 0.41-0.276l5.402-5.402h5.037c0.334 0 0.654-0.133 0.89-0.369s0.369-0.556 0.369-0.89v-1.259h1.259c0.334 0 0.654-0.133 0.891-0.369s0.369-0.557 0.369-0.891v-1.259h1.259c0.334 0 0.654-0.133 0.89-0.369s0.369-0.556 0.369-0.89v-1.259h-8.815v1.259c0 0.668-0.265 1.309-0.738 1.781s-1.113 0.738-1.781 0.738h-2.518c-0.668 0-1.309-0.265-1.781-0.738s-0.738-1.113-0.738-1.781v-3.778l-2.518 2.518z"></path>
</symbol>

<symbol id="icon-renovation" viewBox="0 0 32 32">
<path fill="#7595fd" style="fill: var(--color1, #7595fd)" d="M0.323 14.204h17.63v17.63h-17.63v-17.63z"></path>
<path fill="#fff" style="fill: var(--color2, #fff)" d="M24.878 5.389c-0.835 0.001-1.635 0.333-2.225 0.923s-0.922 1.391-0.923 2.225c0 0.45 0.098 0.876 0.27 1.266l-2.462 2.769c-0.836-0.577-1.828-0.886-2.845-0.886-0.932 0-1.793 0.272-2.542 0.713l-2.864-2.862-0.029 0.029c0.247-0.501 0.398-1.059 0.398-1.657 0-0.747-0.222-1.478-0.637-2.099s-1.005-1.105-1.695-1.391c-0.69-0.286-1.45-0.361-2.183-0.215s-1.406 0.506-1.934 1.034c-0.528 0.528-0.888 1.201-1.034 1.934s-0.071 1.492 0.215 2.183c0.286 0.69 0.77 1.28 1.391 1.695s1.352 0.637 2.099 0.637c0.598 0 1.155-0.151 1.657-0.398l-0.029 0.029 2.864 2.862c-0.463 0.768-0.709 1.647-0.714 2.544 0 1.255 0.479 2.391 1.24 3.275l-3.245 3.244c-0.364-0.146-0.752-0.221-1.143-0.223-1.735 0-3.148 1.412-3.148 3.148s1.413 3.148 3.148 3.148c1.735 0 3.148-1.412 3.148-3.148 0-0.404-0.083-0.788-0.223-1.145l3.574-3.574c0.53 0.189 1.092 0.311 1.686 0.311 2.778 0 5.037-2.259 5.037-5.037 0-0.801-0.205-1.548-0.539-2.221l2.666-3.001c0.322 0.111 0.662 0.185 1.021 0.185 1.736 0 3.148-1.412 3.148-3.148s-1.412-3.148-3.148-3.148zM16.693 19.241c-1.389 0-2.518-1.13-2.518-2.518s1.13-2.518 2.518-2.518c1.389 0 2.519 1.13 2.519 2.518s-1.13 2.518-2.519 2.518z"></path>
</symbol>

<symbol id="icon-construction" viewBox="0 0 32 32">
<path fill="#7595fd" style="fill: var(--color1, #7595fd)" d="M0.113 14.204h17.63v17.63h-17.63v-17.63z"></path>
<path fill="#292e3d" style="fill: var(--color3, #292e3d)" d="M24.027 4.13h-12.569c-1.399 0-2.531 1.132-2.531 2.531v7.098l-5.921 5.846c-0.177 0.175-0.299 0.4-0.348 0.644s-0.026 0.498 0.069 0.729c0.095 0.231 0.256 0.428 0.463 0.568s0.451 0.213 0.7 0.214v6.296c0 0.334 0.133 0.654 0.369 0.89s0.556 0.369 0.89 0.369h20.148c0.334 0 0.654-0.133 0.89-0.369s0.369-0.556 0.369-0.89v-21.396c0-1.398-1.131-2.53-2.53-2.53zM13.866 20.64v6.156h-7.457v-7.012l3.761-3.713 3.696 3.782v0.787zM16.483 12.945h-2.518v-2.518h2.518v2.518zM21.52 23.019h-2.518v-2.519h2.518v2.519zM21.52 17.982h-2.518v-2.518h2.518v2.518zM21.52 12.945h-2.518v-2.518h2.518v2.518z"></path>
<path fill="#14171f" style="fill: var(--color4, #14171f)" d="M8.927 20.5h2.518v2.519h-2.518v-2.519z"></path>
</symbol>

</defs>
</svg>